<?xml version="1.0" encoding="UTF-8" standalone="no"?>
<!-- Created with Inkscape (http://www.inkscape.org/) -->

<svg
   xmlns:dc="http://purl.org/dc/elements/1.1/"
   xmlns:cc="http://creativecommons.org/ns#"
   xmlns:rdf="http://www.w3.org/1999/02/22-rdf-syntax-ns#"
   xmlns:svg="http://www.w3.org/2000/svg"
   xmlns="http://www.w3.org/2000/svg"
   xmlns:sodipodi="http://sodipodi.sourceforge.net/DTD/sodipodi-0.dtd"
   xmlns:inkscape="http://www.inkscape.org/namespaces/inkscape"
   width="135.46666mm"
   height="52.22427mm"
   viewBox="0 0 135.46666 52.224271"
   version="1.1"
   id="svg1035"
   inkscape:version="0.92.2 (5c3e80d, 2017-08-06)"
   sodipodi:docname="antv logo.svg">
  <defs
     id="defs1029">
    <clipPath
       clipPathUnits="userSpaceOnUse"
       id="clipPath192">
      <path
         d="M 0,0 H 595.276 V 841.89 H 0 Z"
         id="path190"
         inkscape:connector-curvature="0" />
    </clipPath>
  </defs>
  <sodipodi:namedview
     id="base"
     pagecolor="#ffffff"
     bordercolor="#666666"
     borderopacity="1.0"
     inkscape:pageopacity="0.0"
     inkscape:pageshadow="2"
     inkscape:zoom="1"
     inkscape:cx="2.043439"
     inkscape:cy="-89.81635"
     inkscape:document-units="mm"
     inkscape:current-layer="layer1"
     showgrid="false"
     fit-margin-top="0"
     fit-margin-left="0"
     fit-margin-right="0"
     fit-margin-bottom="0"
     inkscape:window-width="1600"
     inkscape:window-height="837"
     inkscape:window-x="-8"
     inkscape:window-y="-8"
     inkscape:window-maximized="1" />
  <metadata
     id="metadata1032">
    <rdf:RDF>
      <cc:Work
         rdf:about="">
        <dc:format>image/svg+xml</dc:format>
        <dc:type
           rdf:resource="http://purl.org/dc/dcmitype/StillImage" />
        <dc:title></dc:title>
      </cc:Work>
    </rdf:RDF>
  </metadata>
  <g
     inkscape:label="Layer 1"
     inkscape:groupmode="layer"
     id="layer1"
     transform="translate(23.597208,-51.678486)">
    <g
       id="g186"
       transform="matrix(1.4228496,0,0,-1.4228496,-104.26282,823.24287)">
      <g
         id="g188"
         clip-path="url(#clipPath192)">
        <g
           id="g194"
           transform="translate(131.935,511.415)">
          <path
             d="m 0,0 c -2.917,-0.18 -4.65,2.236 -4.65,2.236 0,0 -5.933,9.232 -6.907,10.839 -2.296,4.628 -6.434,3.563 -6.434,3.563 V 7.975 c -0.017,-2.293 1.407,-2.643 1.67,-2.817 3.172,-1.07 5.644,0 7.016,0.224 1.895,0.221 1.388,-2.159 1.388,-2.159 0,0 -1.704,-1.539 -6.192,-2.782 -4.515,-1.234 -8.218,0.534 -8.218,0.534 0,0 -4.318,1.961 -4.318,6.131 0,4.185 -0.05,9.522 -0.05,9.522 h -2.16 l 0.636,-1.327 V 2.649 c 0,0 -0.899,-2.76 -4.215,-2.76 -3.308,0 -4.095,2.682 -4.095,2.682 l -0.094,10.674 c 0,0 -0.61,3.734 -4.265,3.3 -3.678,-0.441 -4.243,-1.782 -4.243,-1.782 0,0 -0.044,-11.118 -0.044,-12.096 0,-0.983 -0.789,-2.778 -4.277,-2.778 -3.47,0 -4.287,2.065 -4.287,2.065 0,0 -3.7,-2.065 -8.498,-2.065 -4.8,0 -7.61,2.607 -7.61,4.959 -0.125,2.437 2.083,4.663 5.259,5.646 3.178,0.974 10.849,2.849 10.849,2.849 0,0 0.714,3.314 -4.71,3.314 -4.465,0.062 -6.139,-1.262 -7.9,-2.076 -1.765,-0.802 -2.099,0.441 -2.099,0.441 0,0 3.415,5.615 12.507,5.965 7.581,-0.179 9.62,-2.855 9.62,-2.855 0,0 4.493,3.115 8.369,2.743 4.953,0.112 7.944,-2.562 7.944,-2.562 l 10.935,9.047 h 1.082 v -6.472 l 8.726,0.004 c 0,0 2.644,0 3.606,-1.573 0.972,-1.587 3.441,-6.074 4.252,-7.591 0.797,-1.535 1.844,-1.419 2.944,-0.053 1.095,1.355 8.08,11.529 8.524,12.063 1.576,2.145 4.582,1.247 6.081,2.756 1.243,0.722 2.963,3.5 3.718,4.237 0.032,0.054 0.067,0.079 0.099,0.121 h -87.194 c -4.013,0 -8.007,-3.202 -8.007,-7.194 v -29.51 h 87.215 c 3.987,0 7.992,3.981 7.992,7.981 V 26.908 C 17.133,22.319 4.056,2.129 4.056,2.129 4.056,2.129 2.912,0.171 0,0"
             style="fill:#c7242e;fill-opacity:1;fill-rule:nonzero;stroke:none"
             id="path196"
             inkscape:connector-curvature="0" />
        </g>
        <g
           id="g198"
           transform="translate(72.1075,515.415)">
          <path
             d="M 0,0 C 2.029,-1.152 6.089,1.158 6.089,1.158 V 6.139 C 6.089,6.139 1.592,4.807 0,3.909 -1.581,3.025 -2.026,1.158 0,0"
             style="fill:#c7242e;fill-opacity:1;fill-rule:nonzero;stroke:none"
             id="path200"
             inkscape:connector-curvature="0" />
        </g>
        <g
           id="g202"
           transform="translate(151.895,542.266)">
          <path
             d="m 0,0 c -0.031,-0.039 -0.067,-0.066 -0.099,-0.121 -0.757,-0.736 -2.475,-3.514 -3.718,-4.235 -1.499,-1.509 -4.505,-0.611 -6.08,-2.757 -0.447,-0.532 -7.43,-10.708 -8.525,-12.065 -1.102,-1.362 -2.147,-1.48 -2.945,0.055 -0.81,1.516 -3.28,6.006 -4.25,7.591 -0.964,1.575 -3.607,1.575 -3.607,1.575 l -8.728,-0.006 v 6.472 h -1.08 l -10.935,-9.047 c 0,0 -2.991,2.674 -7.943,2.561 -3.877,0.373 -8.37,-2.74 -8.37,-2.74 0,0 -2.039,2.674 -9.621,2.853 -9.093,-0.351 -12.505,-5.965 -12.505,-5.965 0,0 0.333,-1.244 2.096,-0.44 1.763,0.813 3.437,2.136 7.902,2.074 5.424,0 4.71,-3.313 4.71,-3.313 0,0 -7.67,-1.875 -10.849,-2.849 -3.175,-0.983 -5.383,-3.209 -5.259,-5.645 0,-2.352 2.81,-4.96 7.61,-4.96 4.799,0 8.498,2.065 8.498,2.065 0,0 0.815,-2.065 4.287,-2.065 3.488,0 4.275,1.795 4.275,2.778 0,0.979 0.046,12.096 0.046,12.096 0,0 0.565,1.341 4.241,1.781 3.657,0.435 4.266,-3.3 4.266,-3.3 l 0.093,-10.671 c 0,0 0.789,-2.684 4.098,-2.684 3.315,0 4.214,2.76 4.214,2.76 v 12.652 l -0.635,1.328 h 2.157 c 0,0 0.052,-5.337 0.052,-9.523 0,-4.17 4.318,-6.131 4.318,-6.131 0,0 3.703,-1.768 8.217,-0.535 4.489,1.244 6.193,2.785 6.193,2.785 0,0 0.507,2.377 -1.388,2.157 -1.372,-0.224 -3.843,-1.292 -7.018,-0.224 -0.262,0.174 -1.685,0.525 -1.67,2.819 v 8.661 c 0,0 4.14,1.065 6.436,-3.561 0.975,-1.609 6.908,-10.841 6.908,-10.841 0,0 1.733,-2.415 4.649,-2.236 2.912,0.171 4.056,2.129 4.056,2.129 0,0 13.075,20.189 15.909,24.779 V 0 Z m -73.698,-25.693 c 0,0 -4.06,-2.311 -6.089,-1.158 -2.027,1.158 -1.581,3.024 0,3.909 1.592,0.897 6.089,2.232 6.089,2.232 z"
             style="fill:#ffffff;fill-opacity:1;fill-rule:nonzero;stroke:none"
             id="path204"
             inkscape:connector-curvature="0" />
        </g>
      </g>
    </g>
  </g>
</svg>
